<?xml version="1.0" encoding="utf-8"?>
<!-- Generator: Adobe Illustrator 16.0.0, SVG Export Plug-In . SVG Version: 6.00 Build 0)  -->
<!DOCTYPE svg PUBLIC "-//W3C//DTD SVG 1.1//EN" "http://www.w3.org/Graphics/SVG/1.1/DTD/svg11.dtd">
<svg version="1.1" id="Layer_1" xmlns="http://www.w3.org/2000/svg" xmlns:xlink="http://www.w3.org/1999/xlink" x="0px" y="0px"
	 width="841.89px" height="1190.55px" viewBox="0 0 841.89 1190.55" enable-background="new 0 0 841.89 1190.55"
	 xml:space="preserve">
<g>
	<defs>
		<polygon id="SVGID_1_" points="375.638,31.474 432.565,33.345 420.522,66.542 436.8,80.846 451.104,40.893 544.449,45.657 
			555.177,17.711 584.536,69.053 603.515,19.684 632.288,51.424 643.467,20.67 689.832,50.147 703.149,16.724 730.814,51.26 
			742.225,21.692 786.507,37.933 809.196,62.102 814.128,92.19 800.317,130.663 816.536,221.579 808.209,239.669 808.209,266.304 
			823.64,265.735 556.323,983.745 20.61,983.745 		"/>
	</defs>
	<clipPath id="SVGID_2_">
		<use xlink:href="#SVGID_1_"  overflow="visible"/>
	</clipPath>
	
		<linearGradient id="SVGID_3_" gradientUnits="userSpaceOnUse" x1="4.882813e-004" y1="1190.5791" x2="1.0005" y2="1190.5791" gradientTransform="matrix(855.8538 -855.8538 -855.8538 -855.8538 1018941.875 1019905.1875)">
		<stop  offset="0" style="stop-color:#FFF100"/>
		<stop  offset="0.1151" style="stop-color:#FFF100"/>
		<stop  offset="0.1896" style="stop-color:#FFEC03"/>
		<stop  offset="0.2834" style="stop-color:#FDDC0C"/>
		<stop  offset="0.3874" style="stop-color:#FBC21B"/>
		<stop  offset="0.4989" style="stop-color:#F89E30"/>
		<stop  offset="0.6163" style="stop-color:#F4704A"/>
		<stop  offset="0.7369" style="stop-color:#F0396A"/>
		<stop  offset="0.8463" style="stop-color:#EB008B"/>
		<stop  offset="1" style="stop-color:#EB008B"/>
	</linearGradient>
	<polygon clip-path="url(#SVGID_2_)" fill="url(#SVGID_3_)" points="-462.9,500.234 422.125,-384.791 1307.15,500.234 
		422.125,1385.26 	"/>
</g>
<g>
	<defs>
		<rect id="SVGID_4_" y="-0.001" width="841.89" height="1190.551"/>
	</defs>
	<clipPath id="SVGID_5_">
		<use xlink:href="#SVGID_4_"  overflow="visible"/>
	</clipPath>
	<path clip-path="url(#SVGID_5_)" fill="#FFFFFF" d="M404.338,117.167c-10.219,0.179-19.889-2.167-28.856-6.624
		c-9.117-4.592-9.478-8.359-2.644-15.746c1.162-1.278,2.028-2.551,3.34-3.833c5.666-6.388,5.811-6.53,13.588-2.333
		c3.291,1.76,6.433,3.521,10.44,4.01c4.158,0.486,7.855,0.143,9.261-4.215c1.119-3.792-1.585-5.842-4.871-7.462
		c-7.778-4.196-15.986-7.687-23.621-12.165c-15.269-9.098-16.677-38.843,4.637-48.439c15.141-6.834,30.276-5.42,44.639,2.575
		c5.688,3.394,6.016,5.205,2.4,10.299c-2.026,2.691-4.353,5.248-6.381,7.799c-3.335,4.252-6.713,5.848-12.39,3.152
		c-3.434-1.478-9.103-3.755-11.098,0.753c-1.996,4.507,3.809,6.083,7.25,7.979c5.825,2.693,11.507,5.669,17.05,9.206
		c12.131,7.475,15.148,19.162,11.832,32.777c-3.192,12.355-13.418,20.64-27.322,22C409.229,117.221,406.708,117.126,404.338,117.167
		"/>
	<path clip-path="url(#SVGID_5_)" fill="none" stroke="#FFFFFF" stroke-width="0.815" stroke-miterlimit="10" d="M404.338,117.167
		c-10.219,0.179-19.889-2.167-28.856-6.624c-9.117-4.592-9.478-8.359-2.644-15.746c1.162-1.278,2.028-2.551,3.34-3.833
		c5.666-6.388,5.811-6.53,13.588-2.333c3.291,1.76,6.433,3.521,10.44,4.01c4.158,0.486,7.855,0.143,9.261-4.215
		c1.119-3.792-1.585-5.842-4.871-7.462c-7.778-4.196-15.986-7.687-23.621-12.165c-15.269-9.098-16.677-38.843,4.637-48.439
		c15.141-6.834,30.276-5.42,44.639,2.575c5.688,3.394,6.016,5.205,2.4,10.299c-2.026,2.691-4.353,5.248-6.381,7.799
		c-3.335,4.252-6.713,5.848-12.39,3.152c-3.434-1.478-9.103-3.755-11.098,0.753c-1.996,4.507,3.809,6.083,7.25,7.979
		c5.825,2.693,11.507,5.669,17.05,9.206c12.131,7.475,15.148,19.162,11.832,32.777c-3.192,12.355-13.418,20.64-27.322,22
		C409.229,117.221,406.708,117.126,404.338,117.167z"/>
	<path clip-path="url(#SVGID_5_)" fill="#FFFFFF" d="M547.606,64.294c1.449,15.069-3.812,27.74-14.886,38.416
		c-13.691,13.376-30.845,15.213-48.975,12.036c-22.146-4.086-36.508-20.606-38.213-41.959c-0.762-9.631,0.266-18.733,3.811-27.88
		c7.233-18.436,22.213-25.965,41.129-28.671c26.896-3.824,44.939,11.514,54.606,30.632
		C547.844,52.412,547.061,58.435,547.606,64.294 M496.308,45.065c-14.058,0.944-23.409,8.375-23.439,23.609
		c-0.097,11.463,11.947,22.433,23.638,21.67c16.427-0.986,23.213-11.167,24.016-24.598
		C521.207,54.134,509.046,44.844,496.308,45.065"/>
	<path clip-path="url(#SVGID_5_)" fill="none" stroke="#FFFFFF" stroke-width="0.815" stroke-miterlimit="10" d="M547.606,64.294
		c1.449,15.069-3.812,27.74-14.886,38.416c-13.691,13.376-30.845,15.213-48.975,12.036c-22.146-4.086-36.508-20.606-38.213-41.959
		c-0.762-9.631,0.266-18.733,3.811-27.88c7.233-18.436,22.213-25.965,41.129-28.671c26.896-3.824,44.939,11.514,54.606,30.632
		C547.844,52.412,547.061,58.435,547.606,64.294z M496.308,45.065c-14.058,0.944-23.409,8.375-23.439,23.609
		c-0.097,11.463,11.947,22.433,23.638,21.67c16.427-0.986,23.213-11.167,24.016-24.598
		C521.207,54.134,509.046,44.844,496.308,45.065z"/>
	<path clip-path="url(#SVGID_5_)" fill="#FFFFFF" d="M602.231,51.063c-0.144-8.243-0.437-16.484-0.43-24.591
		c0.002-8.385,2.185-10.659,10.769-11.228c3.402-0.2,6.963,0.017,10.372,0.098c8.446,0.132,11.307,2.738,10.56,10.856
		c-1.629,17.08-1.479,34.129-0.441,51.161c1.671,27.784-16.672,37.887-36.494,39.631c-19.231,1.594-42.352-7.366-41.765-33.232
		c0.443-17.059-0.003-34.103-2.074-50.977c-0.352-3.209-0.114-6.567,0.422-9.791c0.52-4.062,2.699-6.615,7.44-6.559
		c5.332-0.093,10.511-0.463,15.696-0.414c5.778,0.039,9.233,2.774,9.181,8.225c0.045,11.041,0.981,22.205-0.604,33.274
		c-1.196,7.848-0.022,15.653,1.151,23.461c0.667,4.32,2.633,6.661,7.079,6.723c4.297,0.066,9.274-3.376,9.502-7.293
		c0.615-7.279,0.343-14.402,0.363-21.67C602.915,56.223,602.422,53.576,602.231,51.063"/>
	<path clip-path="url(#SVGID_5_)" fill="none" stroke="#FFFFFF" stroke-width="0.815" stroke-miterlimit="10" d="M602.231,51.063
		c-0.144-8.243-0.437-16.484-0.43-24.591c0.002-8.385,2.185-10.659,10.769-11.228c3.402-0.2,6.963,0.017,10.372,0.098
		c8.446,0.132,11.307,2.738,10.56,10.856c-1.629,17.08-1.479,34.129-0.441,51.161c1.671,27.784-16.672,37.887-36.494,39.631
		c-19.231,1.594-42.352-7.366-41.765-33.232c0.443-17.059-0.003-34.103-2.074-50.977c-0.352-3.209-0.114-6.567,0.422-9.791
		c0.52-4.062,2.699-6.615,7.44-6.559c5.332-0.093,10.511-0.463,15.696-0.414c5.778,0.039,9.233,2.774,9.181,8.225
		c0.045,11.041,0.981,22.205-0.604,33.274c-1.196,7.848-0.022,15.653,1.151,23.461c0.667,4.32,2.633,6.661,7.079,6.723
		c4.297,0.066,9.274-3.376,9.502-7.293c0.615-7.279,0.343-14.402,0.363-21.67C602.915,56.223,602.422,53.576,602.231,51.063z"/>
	<path clip-path="url(#SVGID_5_)" fill="#FFFFFF" d="M699.939,61.615c2.202-1.157,2.763-2.983,2.283-4.932
		c-0.155-8.942-0.299-17.185-1.809-27.222c-0.212-12.155,0.232-12.163,9.552-13.025c6.071-0.105,9.62-0.587,15.109-0.124
		c5.34,0.466,6.741,4.354,6.38,9.113c-0.744,25.17-1.222,48.798-0.684,79.676c0.128,7.265-0.594,8.396-8.128,9.646
		c-16.438,0.286-15.368,2.225-22.371-8.554c-6.687-9.667-14.393-18.197-20.194-28.158c-1.068-1.799-2.725-3.307-5.082-2.567
		c-2.21,0.737-2.768,2.704-2.583,4.797c0.29,8.101,0.727,16.199,1.169,24.578c0.465,9.635-1.136,11.34-11.498,11.66
		c-17.325,0.583-18.065,0.596-18.058-15.897c-0.41-49.049-0.293-25.291-1.991-71.662c-0.593-8.515,2.18-10.94,11.204-11.657
		c14.959-0.26,14.959-0.26,24.228,12.995c4.764,9.839,11.585,18.665,17.813,27.501C696.643,59.437,697.563,61.237,699.939,61.615"/>
	<path clip-path="url(#SVGID_5_)" fill="none" stroke="#FFFFFF" stroke-width="0.815" stroke-miterlimit="10" d="M699.939,61.615
		c2.202-1.157,2.763-2.983,2.283-4.932c-0.155-8.942-0.299-17.185-1.809-27.222c-0.212-12.155,0.232-12.163,9.552-13.025
		c6.071-0.105,9.62-0.587,15.109-0.124c5.34,0.466,6.741,4.354,6.38,9.113c-0.744,25.17-1.222,48.798-0.684,79.676
		c0.128,7.265-0.594,8.396-8.128,9.646c-16.438,0.286-15.368,2.225-22.371-8.554c-6.687-9.667-14.393-18.197-20.194-28.158
		c-1.068-1.799-2.725-3.307-5.082-2.567c-2.21,0.737-2.768,2.704-2.583,4.797c0.29,8.101,0.727,16.199,1.169,24.578
		c0.465,9.635-1.136,11.34-11.498,11.66c-17.325,0.583-18.065,0.596-18.058-15.897c-0.41-49.049-0.293-25.291-1.991-71.662
		c-0.593-8.515,2.18-10.94,11.204-11.657c14.959-0.26,14.959-0.26,24.228,12.995c4.764,9.839,11.585,18.665,17.813,27.501
		C696.643,59.437,697.563,61.237,699.939,61.615z"/>
	<path clip-path="url(#SVGID_5_)" fill="#FFFFFF" d="M740.332,30.669c-0.193-11.038,1.99-13.312,13.547-13.235
		c8.891,0.124,17.925-0.033,26.534,0.935c19.585,1.614,31.014,11.337,36.35,28.436c5.958,18.904,5.404,38.061-9.12,54.666
		c-7.699,8.8-17.853,12.751-29.24,13.928c-8.286,0.564-16.429,0.846-24.575,0.989c-10.952,0.61-12.758-1.035-12.346-11.384
		c0.522-12.449,0.899-24.894-0.502-37.169L740.332,30.669z M769.651,72.365c-0.244,2.939-0.21,4.895-0.47,6.996
		c-0.532,3.503-1.056,7.426,2.54,9.739c3.741,2.171,8.15,0.137,11.828-1.325c3.386-1.317,5.553-4.43,6.823-8.085
		c2.665-8.572,2.657-17.517-0.454-25.988c-2.022-5.555-9.643-9.196-15.698-8.111c-3.249,0.476-5.44,2.331-4.647,5.252
		C771.185,58.362,767.76,65.83,769.651,72.365"/>
	<path clip-path="url(#SVGID_5_)" fill="none" stroke="#FFFFFF" stroke-width="0.815" stroke-miterlimit="10" d="M740.332,30.669
		c-0.193-11.038,1.99-13.312,13.547-13.235c8.891,0.124,17.925-0.033,26.534,0.935c19.585,1.614,31.014,11.337,36.35,28.436
		c5.958,18.904,5.404,38.061-9.12,54.666c-7.699,8.8-17.853,12.751-29.24,13.928c-8.286,0.564-16.429,0.846-24.575,0.989
		c-10.952,0.61-12.758-1.035-12.346-11.384c0.522-12.449,0.899-24.894-0.502-37.169L740.332,30.669z M769.651,72.365
		c-0.244,2.939-0.21,4.895-0.47,6.996c-0.532,3.503-1.056,7.426,2.54,9.739c3.741,2.171,8.15,0.137,11.828-1.325
		c3.386-1.317,5.553-4.43,6.823-8.085c2.665-8.572,2.657-17.517-0.454-25.988c-2.022-5.555-9.643-9.196-15.698-8.111
		c-3.249,0.476-5.44,2.331-4.647,5.252C771.185,58.362,767.76,65.83,769.651,72.365z"/>
	<path clip-path="url(#SVGID_5_)" fill="#FFFFFF" d="M725.177,172.772c1.447,15.069-3.813,27.74-14.886,38.416
		c-13.693,13.376-30.847,15.214-48.977,12.036c-22.145-4.085-36.506-20.606-38.213-41.959c-0.76-9.631,0.266-18.733,3.811-27.88
		c7.233-18.435,22.213-25.964,41.129-28.67c26.896-3.825,44.941,11.513,54.609,30.631
		C725.412,160.889,724.629,166.912,725.177,172.772 M673.878,153.543c-14.058,0.944-23.411,8.375-23.441,23.61
		c-0.095,11.462,11.948,22.433,23.639,21.669c16.428-0.985,23.212-11.167,24.015-24.598
		C698.775,162.612,686.614,153.321,673.878,153.543"/>
	<path clip-path="url(#SVGID_5_)" fill="none" stroke="#FFFFFF" stroke-width="0.815" stroke-miterlimit="10" d="M725.177,172.772
		c1.447,15.069-3.813,27.74-14.886,38.416c-13.693,13.376-30.847,15.214-48.977,12.036c-22.145-4.085-36.506-20.606-38.213-41.959
		c-0.76-9.631,0.266-18.733,3.811-27.88c7.233-18.435,22.213-25.964,41.129-28.67c26.896-3.825,44.941,11.513,54.609,30.631
		C725.412,160.889,724.629,166.912,725.177,172.772z M673.878,153.543c-14.058,0.944-23.411,8.375-23.441,23.61
		c-0.095,11.462,11.948,22.433,23.639,21.669c16.428-0.985,23.212-11.167,24.015-24.598
		C698.775,162.612,686.614,153.321,673.878,153.543z"/>
	<path clip-path="url(#SVGID_5_)" fill="#FFFFFF" d="M787.982,170.093c2.202-1.157,2.763-2.983,2.285-4.932
		c-0.156-8.942-0.301-17.185-1.809-27.222c-0.212-12.155,0.232-12.163,9.55-13.024c6.073-0.106,9.62-0.588,15.11-0.124
		c5.341,0.465,6.742,4.354,6.381,9.112c-0.746,25.17-1.224,48.798-0.684,79.676c0.126,7.266-0.594,8.396-8.128,9.646
		c-16.44,0.287-15.368,2.225-22.373-8.554c-6.687-9.666-14.391-18.197-20.194-28.158c-1.068-1.798-2.725-3.307-5.082-2.566
		c-2.209,0.736-2.768,2.703-2.583,4.796c0.29,8.101,0.728,16.2,1.17,24.578c0.464,9.635-1.135,11.34-11.5,11.661
		c-17.324,0.582-18.064,0.595-18.055-15.897c-0.412-49.049-0.295-25.291-1.992-71.663c-0.592-8.514,2.18-10.94,11.205-11.656
		c14.957-0.261,14.957-0.261,24.226,12.994c4.764,9.839,11.585,18.665,17.814,27.502
		C784.686,167.914,785.605,169.715,787.982,170.093"/>
	<path clip-path="url(#SVGID_5_)" fill="none" stroke="#FFFFFF" stroke-width="0.815" stroke-miterlimit="10" d="M787.982,170.093
		c2.202-1.157,2.763-2.983,2.285-4.932c-0.156-8.942-0.301-17.185-1.809-27.222c-0.212-12.155,0.232-12.163,9.55-13.024
		c6.073-0.106,9.62-0.588,15.11-0.124c5.341,0.465,6.742,4.354,6.381,9.112c-0.746,25.17-1.224,48.798-0.684,79.676
		c0.126,7.266-0.594,8.396-8.128,9.646c-16.44,0.287-15.368,2.225-22.373-8.554c-6.687-9.666-14.391-18.197-20.194-28.158
		c-1.068-1.798-2.725-3.307-5.082-2.566c-2.209,0.736-2.768,2.703-2.583,4.796c0.29,8.101,0.728,16.2,1.17,24.578
		c0.464,9.635-1.135,11.34-11.5,11.661c-17.324,0.582-18.064,0.595-18.055-15.897c-0.412-49.049-0.295-25.291-1.992-71.663
		c-0.592-8.514,2.18-10.94,11.205-11.656c14.957-0.261,14.957-0.261,24.226,12.994c4.764,9.839,11.585,18.665,17.814,27.502
		C784.686,167.914,785.605,169.715,787.982,170.093z"/>
	<path clip-path="url(#SVGID_5_)" fill="#FFFFFF" d="M650.579,247.671c0.431,0.048,0.91,0,1.342,0
		c5.127-0.192,6.038,0.814,5.367,5.99c-0.336,2.3-1.006,2.97-3.259,2.875c-1.772-0.096-3.546-0.432-5.318-0.432
		c-3.307,0-3.689,0.432-3.642,3.642c0,1.677-0.096,3.355-0.096,5.031c0,0.958-0.24,1.773-0.958,2.395
		c-1.199,1.007-6.565,1.103-7.812,0.192c-0.861-0.67-0.623-1.629-0.623-2.49c0-3.69,0.144-7.38,0.096-11.07
		c-0.048-5.366-0.19-10.733-0.334-16.1c-0.098-3.306,0.479-4.073,3.832-3.881c4.648,0.24,9.296,0.431,14.041,0.096
		c2.874-0.144,3.832,1.246,3.593,4.217c-0.526,5.702,0.144,5.941-6.709,5.702c-1.102,0-2.204-0.048-3.354,0
		c-1.39,0.144-1.677,1.198-1.629,2.491c0.144,1.246,0.861,1.678,2.107,1.534C648.375,247.719,649.429,247.719,650.579,247.671"/>
	<path clip-path="url(#SVGID_5_)" fill="none" stroke="#FFFFFF" stroke-width="0.815" stroke-miterlimit="10" d="M650.579,247.671
		c0.431,0.048,0.91,0,1.342,0c5.127-0.192,6.038,0.814,5.367,5.99c-0.336,2.3-1.006,2.97-3.259,2.875
		c-1.772-0.096-3.546-0.432-5.318-0.432c-3.307,0-3.689,0.432-3.642,3.642c0,1.677-0.096,3.355-0.096,5.031
		c0,0.958-0.24,1.773-0.958,2.395c-1.199,1.007-6.565,1.103-7.812,0.192c-0.861-0.67-0.623-1.629-0.623-2.49
		c0-3.69,0.144-7.38,0.096-11.07c-0.048-5.366-0.19-10.733-0.334-16.1c-0.098-3.306,0.479-4.073,3.832-3.881
		c4.648,0.24,9.296,0.431,14.041,0.096c2.874-0.144,3.832,1.246,3.593,4.217c-0.526,5.702,0.144,5.941-6.709,5.702
		c-1.102,0-2.204-0.048-3.354,0c-1.39,0.144-1.677,1.198-1.629,2.491c0.144,1.246,0.861,1.678,2.107,1.534
		C648.375,247.719,649.429,247.719,650.579,247.671z"/>
	<path clip-path="url(#SVGID_5_)" fill="#FFFFFF" d="M659.586,255.194c0.575-5.271,0.048-11.021-0.191-16.867
		c0-0.671-0.047-1.39,0.047-2.012c0.192-2.013,0.815-2.78,2.732-2.636c4.935,0.288,9.822,0.192,14.758,0.096
		c2.588-0.048,3.593,1.054,3.642,3.689c0.048,0.814,0,1.581-0.144,2.348c-0.527,2.732-1.486,3.546-4.168,3.067
		c-1.581-0.24-3.114-0.143-4.697-0.191c-0.624-0.049-1.341,0.095-1.916,0.335c-0.959,0.383-1.438,1.102-1.198,2.155
		c0.239,0.912,0.863,1.246,1.726,1.246c1.485,0,2.922-0.095,4.359-0.239c1.486-0.191,3.355-0.767,4.219,1.054
		c0.909,1.965,0.67,4.169-0.098,6.182c-0.383,0.958-1.533,1.197-2.588,1.294c-1.676,0.143-3.353-0.288-5.031-0.336
		c-2.203-0.096-2.874,0.671-2.683,2.731c0.144,1.246,0.671,1.869,1.917,1.773c2.299-0.048,4.504-0.096,6.756-0.096
		c2.78,0,3.354,0.575,3.402,3.307c0.144,5.127-0.143,5.462-5.32,5.462c-3.927,0-7.856,0-11.738-0.048
		c-3.21,0-3.785-0.527-3.785-3.641V255.194z"/>
	<path clip-path="url(#SVGID_5_)" fill="none" stroke="#FFFFFF" stroke-width="0.815" stroke-miterlimit="10" d="M659.586,255.194
		c0.575-5.271,0.048-11.021-0.191-16.867c0-0.671-0.047-1.39,0.047-2.012c0.192-2.013,0.815-2.78,2.732-2.636
		c4.935,0.288,9.822,0.192,14.758,0.096c2.588-0.048,3.593,1.054,3.642,3.689c0.048,0.814,0,1.581-0.144,2.348
		c-0.527,2.732-1.486,3.546-4.168,3.067c-1.581-0.24-3.114-0.143-4.697-0.191c-0.624-0.049-1.341,0.095-1.916,0.335
		c-0.959,0.383-1.438,1.102-1.198,2.155c0.239,0.912,0.863,1.246,1.726,1.246c1.485,0,2.922-0.095,4.359-0.239
		c1.486-0.191,3.355-0.767,4.219,1.054c0.909,1.965,0.67,4.169-0.098,6.182c-0.383,0.958-1.533,1.197-2.588,1.294
		c-1.676,0.143-3.353-0.288-5.031-0.336c-2.203-0.096-2.874,0.671-2.683,2.731c0.144,1.246,0.671,1.869,1.917,1.773
		c2.299-0.048,4.504-0.096,6.756-0.096c2.78,0,3.354,0.575,3.402,3.307c0.144,5.127-0.143,5.462-5.32,5.462
		c-3.927,0-7.856,0-11.738-0.048c-3.21,0-3.785-0.527-3.785-3.641V255.194z"/>
	<path clip-path="url(#SVGID_5_)" fill="#FFFFFF" d="M694.131,268.179c-3.305,0-6.42-0.862-9.295-2.443
		c-2.922-1.63-3.018-2.924-0.766-5.414c0.384-0.432,0.67-0.864,1.102-1.294c1.869-2.157,1.917-2.204,4.409-0.719
		c1.054,0.622,2.06,1.246,3.353,1.438c1.344,0.192,2.54,0.096,3.02-1.389c0.384-1.294-0.479-2.013-1.533-2.588
		c-2.492-1.486-5.128-2.731-7.571-4.312c-4.887-3.211-5.175-13.417,1.773-16.58c4.935-2.252,9.822-1.676,14.423,1.151
		c1.819,1.197,1.917,1.82,0.718,3.545c-0.67,0.911-1.438,1.773-2.108,2.636c-1.102,1.437-2.203,1.964-4.024,1.006
		c-1.103-0.527-2.922-1.341-3.594,0.192c-0.671,1.533,1.198,2.108,2.301,2.778c1.867,0.959,3.688,2.013,5.461,3.259
		c3.882,2.635,4.793,6.66,3.644,11.308c-1.104,4.217-4.457,6.996-8.962,7.38C695.714,268.228,694.898,268.179,694.131,268.179"/>
	<path clip-path="url(#SVGID_5_)" fill="none" stroke="#FFFFFF" stroke-width="0.815" stroke-miterlimit="10" d="M694.131,268.179
		c-3.305,0-6.42-0.862-9.295-2.443c-2.922-1.63-3.018-2.924-0.766-5.414c0.384-0.432,0.67-0.864,1.102-1.294
		c1.869-2.157,1.917-2.204,4.409-0.719c1.054,0.622,2.06,1.246,3.353,1.438c1.344,0.192,2.54,0.096,3.02-1.389
		c0.384-1.294-0.479-2.013-1.533-2.588c-2.492-1.486-5.128-2.731-7.571-4.312c-4.887-3.211-5.175-13.417,1.773-16.58
		c4.935-2.252,9.822-1.676,14.423,1.151c1.819,1.197,1.917,1.82,0.718,3.545c-0.67,0.911-1.438,1.773-2.108,2.636
		c-1.102,1.437-2.203,1.964-4.024,1.006c-1.103-0.527-2.922-1.341-3.594,0.192c-0.671,1.533,1.198,2.108,2.301,2.778
		c1.867,0.959,3.688,2.013,5.461,3.259c3.882,2.635,4.793,6.66,3.644,11.308c-1.104,4.217-4.457,6.996-8.962,7.38
		C695.714,268.228,694.898,268.179,694.131,268.179z"/>
	<path clip-path="url(#SVGID_5_)" fill="#FFFFFF" d="M719.526,234.158c2.683,0,5.415-0.048,8.098,0
		c2.683,0.049,3.21,0.576,3.306,3.45c0.048,1.102,0.048,2.204-0.096,3.307c-0.286,2.73-0.813,3.114-3.594,3.306
		c-2.396,0.144-2.923,0.67-2.874,3.067c0.097,5.414-0.288,10.781,0.191,16.147c0.384,3.402-0.671,4.409-4.025,4.553h-0.718
		c-4.313,0.143-4.936-0.384-4.984-4.601c-0.048-5.271,0.049-10.493,0.049-15.716c-0.049-2.923-0.191-3.067-2.924-3.259
		c-3.21-0.191-3.689-0.623-3.978-3.737c-0.048-0.863-0.048-1.773-0.096-2.684c-0.191-2.922,0.575-3.784,3.546-3.833
		C714.11,234.11,716.843,234.158,719.526,234.158"/>
	<path clip-path="url(#SVGID_5_)" fill="none" stroke="#FFFFFF" stroke-width="0.815" stroke-miterlimit="10" d="M719.526,234.158
		c2.683,0,5.415-0.048,8.098,0c2.683,0.049,3.21,0.576,3.306,3.45c0.048,1.102,0.048,2.204-0.096,3.307
		c-0.286,2.73-0.813,3.114-3.594,3.306c-2.396,0.144-2.923,0.67-2.874,3.067c0.097,5.414-0.288,10.781,0.191,16.147
		c0.384,3.402-0.671,4.409-4.025,4.553h-0.718c-4.313,0.143-4.936-0.384-4.984-4.601c-0.048-5.271,0.049-10.493,0.049-15.716
		c-0.049-2.923-0.191-3.067-2.924-3.259c-3.21-0.191-3.689-0.623-3.978-3.737c-0.048-0.863-0.048-1.773-0.096-2.684
		c-0.191-2.922,0.575-3.784,3.546-3.833C714.11,234.11,716.843,234.158,719.526,234.158z"/>
	<path clip-path="url(#SVGID_5_)" fill="#FFFFFF" d="M739.504,234.11c4.361-0.143,5.223,0.671,4.84,5.08
		c-0.767,8.049-0.719,16.099-0.431,24.149c0.095,3.498-0.72,4.457-4.121,4.744c-0.911,0.048-1.773-0.096-2.683-0.192
		c-1.774-0.239-2.541-1.197-2.541-2.923c-0.048-3.354-0.048-6.708-0.144-10.063c-0.096-5.174-0.335-10.349-0.527-15.524
		c-0.191-4.744,0.048-5.031,4.647-5.223c0.193,0,0.432-0.048,0.672-0.048H739.504z"/>
	<path clip-path="url(#SVGID_5_)" fill="none" stroke="#FFFFFF" stroke-width="0.815" stroke-miterlimit="10" d="M739.504,234.11
		c4.361-0.143,5.223,0.671,4.84,5.08c-0.767,8.049-0.719,16.099-0.431,24.149c0.095,3.498-0.72,4.457-4.121,4.744
		c-0.911,0.048-1.773-0.096-2.683-0.192c-1.774-0.239-2.541-1.197-2.541-2.923c-0.048-3.354-0.048-6.708-0.144-10.063
		c-0.096-5.174-0.335-10.349-0.527-15.524c-0.191-4.744,0.048-5.031,4.647-5.223c0.193,0,0.432-0.048,0.672-0.048H739.504z"/>
	<path clip-path="url(#SVGID_5_)" fill="#FFFFFF" d="M773.621,237.321c0,0-2.206,5.223-4.745,14.758
		c-1.197,4.312-2.588,8.529-3.642,12.889c-0.717,2.875-2.826,2.732-4.935,2.923c-2.061,0.192-3.594-0.574-4.218-2.587
		c-4.503-14.087-7.092-23.48-7.092-23.48c-0.19-0.814-0.622-2.347-1.149-4.312c-0.813-1.677-0.432-2.491-0.287-2.731
		c0.671-1.15,2.3-0.383,6.229-0.91c0.574-0.048,1.772-0.192,2.777,0.527c0.433,0.287,0.912,0.862,1.486,3.45
		c1.055,5.175,1.343,7.283,1.343,7.283c0.143,0.863,0.384,1.821,1.628,1.773c1.055-0.048,1.103-0.958,1.246-1.726
		c0.384-1.868,0.814-1.581,1.582-7.234c0.335-2.54,0.335-3.642,1.149-4.073c0.384-0.192,0.575-0.096,2.108-0.192
		c1.343-0.048,1.343-0.144,2.444-0.191c1.82-0.145,3.642-0.24,4.312,0.479C774.675,234.829,773.811,236.794,773.621,237.321"/>
	<path clip-path="url(#SVGID_5_)" fill="none" stroke="#FFFFFF" stroke-width="0.815" stroke-miterlimit="10" d="M773.621,237.321
		c0,0-2.206,5.223-4.745,14.758c-1.197,4.312-2.588,8.529-3.642,12.889c-0.717,2.875-2.826,2.732-4.935,2.923
		c-2.061,0.192-3.594-0.574-4.218-2.587c-4.503-14.087-7.092-23.48-7.092-23.48c-0.19-0.814-0.622-2.347-1.149-4.312
		c-0.813-1.677-0.432-2.491-0.287-2.731c0.671-1.15,2.3-0.383,6.229-0.91c0.574-0.048,1.772-0.192,2.777,0.527
		c0.433,0.287,0.912,0.862,1.486,3.45c1.055,5.175,1.343,7.283,1.343,7.283c0.143,0.863,0.384,1.821,1.628,1.773
		c1.055-0.048,1.103-0.958,1.246-1.726c0.384-1.868,0.814-1.581,1.582-7.234c0.335-2.54,0.335-3.642,1.149-4.073
		c0.384-0.192,0.575-0.096,2.108-0.192c1.343-0.048,1.343-0.144,2.444-0.191c1.82-0.145,3.642-0.24,4.312,0.479
		C774.675,234.829,773.811,236.794,773.621,237.321z"/>
	<path clip-path="url(#SVGID_5_)" fill="#FFFFFF" d="M786.029,262.957c-1.629,0-2.636,0-3.546,0.047
		c-1.965,0.048-3.45,0.624-4.267,2.923c0,2.348-0.67,1.725-3.065,1.869c-1.629,0-6.084,0.288-5.75-0.527
		c0-1.006,0.384-2.204,0.575-2.684c2.348-4.839,4.024-9.87,6.085-14.901c1.485-3.499,2.492-7.619,3.642-11.261
		c1.151-4.408,2.444-5.127,7.38-4.792c1.485,0.192,2.013,1.773,2.683,2.924c0.959,1.964,1.246,3.641,1.772,5.51
		c2.013,6.565,4.409,13.033,6.996,19.406c0.289,0.766,0.527,1.533,0.767,2.3c1.008,3.69,0.433,4.313-3.258,4.169
		c-2.922,0.191-3.737,0.239-4.121-2.828c-0.191-1.389-1.102-1.868-2.299-1.964C788.185,263.101,786.842,262.957,786.029,262.957
		 M785.07,255.817c1.965-0.048,2.636-0.432,2.588-1.438c0.048-1.581-1.15-3.258-2.301-3.21c-1.341-0.048-2.54,1.485-2.49,3.354
		C782.817,256.344,784.351,255.577,785.07,255.817"/>
	<path clip-path="url(#SVGID_5_)" fill="none" stroke="#FFFFFF" stroke-width="0.815" stroke-miterlimit="10" d="M786.029,262.957
		c-1.629,0-2.636,0-3.546,0.047c-1.965,0.048-3.45,0.624-4.267,2.923c0,2.348-0.67,1.725-3.065,1.869
		c-1.629,0-6.084,0.288-5.75-0.527c0-1.006,0.384-2.204,0.575-2.684c2.348-4.839,4.024-9.87,6.085-14.901
		c1.485-3.499,2.492-7.619,3.642-11.261c1.151-4.408,2.444-5.127,7.38-4.792c1.485,0.192,2.013,1.773,2.683,2.924
		c0.959,1.964,1.246,3.641,1.772,5.51c2.013,6.565,4.409,13.033,6.996,19.406c0.289,0.766,0.527,1.533,0.767,2.3
		c1.008,3.69,0.433,4.313-3.258,4.169c-2.922,0.191-3.737,0.239-4.121-2.828c-0.191-1.389-1.102-1.868-2.299-1.964
		C788.185,263.101,786.842,262.957,786.029,262.957z M785.07,255.817c1.965-0.048,2.636-0.432,2.588-1.438
		c0.048-1.581-1.15-3.258-2.301-3.21c-1.341-0.048-2.54,1.485-2.49,3.354C782.817,256.344,784.351,255.577,785.07,255.817z"/>
	<path clip-path="url(#SVGID_5_)" fill="#FFFFFF" d="M813.435,267.748h-6.948c-2.204-0.048-2.73-0.431-3.21-2.587
		c-0.192-0.863-0.432-1.773-0.384-2.684c0.718-7.427,0.622-14.95-0.145-22.376c-0.525-5.511,0.288-6.326,5.75-6.278
		c3.69,0.048,4.121,0.335,4.026,3.929c0,5.942-0.096,11.884-0.241,17.777c-0.048,2.3,0.384,2.78,2.637,2.875
		c1.916,0.048,3.833-0.095,5.75-0.048c2.156,0.096,2.683,0.623,3.114,2.732c0.384,1.629,0,3.114-0.144,4.647
		c-0.145,1.534-1.39,1.917-2.779,1.917c-2.492-0.048-4.937-0.048-7.427-0.048V267.748z"/>
	<path clip-path="url(#SVGID_5_)" fill="none" stroke="#FFFFFF" stroke-width="0.815" stroke-miterlimit="10" d="M813.435,267.748
		h-6.948c-2.204-0.048-2.73-0.431-3.21-2.587c-0.192-0.863-0.432-1.773-0.384-2.684c0.718-7.427,0.622-14.95-0.145-22.376
		c-0.525-5.511,0.288-6.326,5.75-6.278c3.69,0.048,4.121,0.335,4.026,3.929c0,5.942-0.096,11.884-0.241,17.777
		c-0.048,2.3,0.384,2.78,2.637,2.875c1.916,0.048,3.833-0.095,5.75-0.048c2.156,0.096,2.683,0.623,3.114,2.732
		c0.384,1.629,0,3.114-0.144,4.647c-0.145,1.534-1.39,1.917-2.779,1.917c-2.492-0.048-4.937-0.048-7.427-0.048V267.748z"/>
</g>
</svg>
