<svg xmlns="http://www.w3.org/2000/svg" viewBox="0 0 36.3 36.4"><g fill="#FFF"><path d="M18.1 8.8c-5.1 0-9.3 4.1-9.3 9.3 0 5.1 4.1 9.3 9.3 9.3 5.2 0 9.4-4.1 9.4-9.3s-4.4-9.3-9.4-9.3zm0 15.3c-3.3 0-6-2.7-6-6s2.7-6 6-6 6 2.7 6 6-2.7 6-6 6zM27.8 6.2c-1.2 0-2.2 1-2.2 2.2 0 1.2 1 2.2 2.2 2.2 1.2 0 2.2-1 2.2-2.2 0-1.3-1-2.2-2.2-2.2z"/><path d="M33.4 3c-1.9-1.9-4.5-3-7.7-3h-15C4.2 0 0 4.4 0 10.7v15.1c0 3.1 1 5.9 3 7.8 1.9 1.9 4.7 2.9 7.7 2.9h14.9c3 0 5.7-1 7.7-2.9 1.9-1.9 3-4.7 3-7.8V10.7c0-3.2-1-5.8-2.9-7.7zM33 25.7c0 2.2-.7 4.1-2.1 5.3-1.2 1.2-3.1 1.9-5.3 1.9H10.7c-2.2 0-4-.7-5.3-1.9-1.4-1.4-2.1-3.3-2.1-5.5v-15c0-2.2.7-4.1 1.9-5.3C6.4 4 8.3 3.3 10.5 3.3h15.1c2.3 0 4.1.7 5.5 2.1 1.2 1.4 1.9 3.1 1.9 5.3v15z"/></g></svg>